<?xml version="1.0" standalone="no"?>
<!DOCTYPE svg PUBLIC "-//W3C//DTD SVG 20010904//EN"
 "http://www.w3.org/TR/2001/REC-SVG-20010904/DTD/svg10.dtd">
<svg version="1.0" xmlns="http://www.w3.org/2000/svg"
 width="1876.000000pt" height="1876.000000pt" viewBox="0 0 1876.000000 1876.000000"
 preserveAspectRatio="xMidYMid meet">

<g transform="translate(0.000000,1876.000000) scale(0.100000,-0.100000)"
fill="#000000" stroke="none">
<path d="M8840 18519 c-1566 -97 -3034 -566 -4355 -1391 -850 -531 -1638
-1230 -2274 -2017 -1112 -1376 -1800 -3027 -1990 -4777 -41 -369 -46 -490 -46
-1009 0 -519 5 -640 46 -1009 366 -3375 2578 -6279 5749 -7548 904 -362 1874
-576 2890 -638 213 -13 847 -13 1060 0 1300 79 2502 402 3635 975 891 451
1678 1024 2385 1734 1441 1450 2356 3327 2604 5346 54 439 61 562 61 1140 0
578 -7 701 -61 1140 -473 3847 -3343 7004 -7134 7849 -472 105 -977 175 -1490
206 -188 11 -892 11 -1080 -1z m1245 -813 c162 -14 406 -41 470 -51 17 -3 48
-7 70 -10 22 -3 65 -10 95 -15 30 -5 73 -12 95 -15 91 -13 452 -89 620 -131
756 -189 1483 -482 2160 -871 150 -87 268 -159 413 -255 57 -37 105 -68 108
-68 3 0 10 -5 17 -10 7 -6 73 -55 147 -108 269 -193 576 -439 775 -622 154
-142 513 -506 641 -650 654 -738 1160 -1559 1524 -2470 313 -784 498 -1586
572 -2475 18 -216 18 -1044 0 -1260 -61 -732 -188 -1363 -406 -2020 -64 -190
-198 -547 -241 -640 -7 -16 -30 -68 -51 -115 -115 -264 -303 -627 -470 -906
-219 -368 -602 -897 -852 -1179 -384 -431 -688 -726 -1082 -1046 -308 -251
-710 -529 -1055 -729 -60 -35 -130 -75 -155 -90 -80 -47 -506 -259 -658 -326
-787 -350 -1623 -578 -2472 -673 -347 -39 -566 -51 -965 -51 -344 0 -391 2
-695 26 -1418 113 -2797 595 -3995 1397 -1344 900 -2417 2192 -3051 3675 -366
854 -593 1784 -653 2677 -6 88 -13 187 -16 220 -9 110 -6 718 5 890 124 2057
955 3935 2390 5399 1439 1468 3367 2365 5390 2506 85 6 173 12 195 14 112 10
972 -3 1130 -18z"/>
</g>
</svg>
