<?xml version="1.0" standalone="no"?>
<!DOCTYPE svg PUBLIC "-//W3C//DTD SVG 20010904//EN"
 "http://www.w3.org/TR/2001/REC-SVG-20010904/DTD/svg10.dtd">
<svg version="1.0" xmlns="http://www.w3.org/2000/svg"
 width="1876.000000pt" height="1876.000000pt" viewBox="0 0 1876.000000 1876.000000"
 preserveAspectRatio="xMidYMid meet">

<g transform="translate(0.000000,1876.000000) scale(0.100000,-0.100000)"
fill="#000000" stroke="none">
<path d="M8290 15913 c-484 -26 -878 -90 -1290 -208 -745 -215 -1417 -593
-1886 -1062 -823 -823 -1153 -2135 -804 -3192 258 -779 835 -1392 1695 -1802
1034 -492 2184 -640 3595 -463 192 23 552 81 651 103 24 5 45 8 47 6 2 -1 -28
-58 -66 -126 -99 -178 -233 -432 -447 -849 -740 -1442 -1312 -2393 -1750
-2915 -121 -144 -309 -342 -465 -491 -135 -129 -378 -344 -396 -351 -6 -2
-137 30 -290 72 -1185 326 -2120 509 -2834 556 -218 14 -552 7 -720 -16 -252
-34 -488 -109 -655 -208 -115 -67 -258 -206 -308 -297 -132 -242 -110 -580 53
-828 214 -325 662 -535 1295 -608 209 -25 708 -25 925 -1 767 85 1391 303
2307 803 94 52 177 94 183 94 7 0 134 -45 284 -101 1046 -390 1895 -659 2426
-768 706 -145 1312 -116 1965 96 543 176 1030 443 1515 830 212 170 565 520
1049 1043 383 413 479 525 487 565 8 43 -9 73 -53 91 -64 27 -96 2 -350 -279
-665 -735 -952 -1014 -1278 -1242 -408 -286 -945 -534 -1400 -649 -351 -88
-554 -111 -985 -111 -681 0 -827 34 -2415 550 -467 152 -851 278 -852 279 -2
2 81 59 184 127 488 322 840 621 1223 1034 889 960 1776 2251 2712 3950 l94
170 239 105 c1361 599 2525 1255 3354 1887 507 387 956 820 1310 1263 392 490
619 911 703 1300 18 88 22 136 22 295 1 195 -6 250 -46 375 -80 250 -251 410
-513 480 -104 28 -328 38 -457 20 -344 -47 -824 -247 -1288 -537 -409 -255
-880 -640 -1359 -1109 l-174 -170 -101 120 c-515 616 -1305 1216 -2063 1565
-744 343 -1589 552 -2437 601 -161 9 -495 11 -636 3z m653 -213 c1624 -99
3142 -785 4155 -1879 139 -151 272 -305 272 -315 0 -4 -114 -126 -254 -271
-623 -648 -1025 -1132 -1486 -1790 -190 -270 -572 -847 -799 -1205 -106 -168
-196 -308 -200 -312 -12 -14 -468 -85 -751 -117 -424 -49 -562 -56 -1105 -56
-423 0 -553 4 -700 18 -600 59 -1104 173 -1563 353 -177 70 -540 252 -697 351
-769 484 -1200 1056 -1327 1761 -20 111 -23 160 -23 387 0 290 12 381 79 626
110 401 348 824 654 1164 498 552 1349 1006 2221 1185 243 49 559 90 806 103
150 8 562 6 718 -3z m7812 -484 c211 -58 357 -201 412 -406 24 -88 23 -319 -1
-445 -108 -568 -507 -1169 -1237 -1866 -936 -894 -1936 -1537 -3142 -2020
-211 -84 -712 -261 -800 -283 -26 -6 -20 8 124 296 327 655 591 1141 828 1526
295 480 693 1117 705 1130 10 10 48 -45 197 -288 446 -729 454 -740 513 -740
36 0 61 21 71 60 12 51 -140 323 -467 834 -89 138 -168 263 -176 277 -15 25
-14 28 49 110 160 211 403 484 580 654 639 611 1395 1092 1840 1169 114 20
420 15 504 -8z m-12695 -10245 c676 -80 1541 -301 2490 -636 135 -48 253 -89
263 -92 9 -3 17 -9 17 -13 0 -27 -602 -345 -865 -458 -544 -232 -1037 -344
-1644 -372 -632 -29 -1116 68 -1463 295 -113 75 -245 213 -296 311 -89 173
-97 364 -22 529 63 138 197 269 353 345 118 57 245 88 467 114 91 11 535 -4
700 -23z"/>
</g>
</svg>
