<?xml version="1.0" standalone="no"?>
<!DOCTYPE svg PUBLIC "-//W3C//DTD SVG 20010904//EN"
 "http://www.w3.org/TR/2001/REC-SVG-20010904/DTD/svg10.dtd">
<svg version="1.0" xmlns="http://www.w3.org/2000/svg"
 width="1876.000000pt" height="1876.000000pt" viewBox="0 0 1876.000000 1876.000000"
 preserveAspectRatio="xMidYMid meet">

<g transform="translate(0.000000,1876.000000) scale(0.100000,-0.100000)"
fill="#000000" stroke="none">
<path d="M1730 12230 c-31 -31 -27 -93 6 -119 26 -20 38 -21 330 -21 l304 0 0
-2390 c0 -2377 0 -2390 20 -2410 26 -26 90 -27 113 -2 16 17 17 199 17 2410
l0 2392 105 0 105 0 0 -2390 c0 -2377 0 -2390 20 -2410 31 -31 93 -27 119 6
21 27 21 27 21 1270 l0 1244 605 0 605 0 0 -2215 c0 -2202 0 -2215 20 -2235
31 -31 93 -27 119 6 l21 27 -2 3409 -3 3410 -24 19 c-32 26 -77 24 -106 -6
l-25 -24 0 -1116 0 -1115 -605 0 -605 0 0 1059 0 1059 141 4 c134 3 142 4 160
27 26 32 24 77 -6 106 l-24 25 -706 0 c-692 0 -705 0 -725 -20z"/>
<path d="M5074 12230 c-283 -74 -495 -337 -591 -735 -16 -64 -17 -206 -21
-1670 -2 -1117 0 -1629 8 -1697 38 -335 222 -653 453 -782 122 -69 314 -99
357 -56 26 26 27 90 2 113 -10 9 -51 20 -102 26 -149 19 -263 90 -369 232 -74
97 -125 203 -159 328 l-27 96 -3 862 -3 863 312 2 312 3 20 27 c17 23 19 34
11 65 -14 58 -34 62 -367 62 l-288 1 4 733 c3 719 3 733 25 816 44 166 132
321 243 427 101 96 204 144 309 144 66 0 100 28 100 81 0 58 -26 79 -97 78
-32 0 -90 -9 -129 -19z"/>
<path d="M11773 12152 c-51 -8 -48 101 -53 -1991 l-5 -1956 -23 -90 c-30 -114
-107 -271 -172 -353 -122 -151 -292 -223 -452 -193 -95 17 -165 57 -254 146
-142 141 -215 301 -244 535 -6 55 -10 558 -10 1425 l0 1340 -70 -3 -70 -4 0
-1383 c0 -1484 -1 -1452 51 -1620 63 -207 213 -416 364 -507 98 -60 183 -82
305 -82 121 0 192 17 288 71 157 87 311 291 380 503 60 183 56 22 59 2159 3
1700 2 1957 -11 1976 -15 23 -45 33 -83 27z"/>
<path d="M14360 12148 c-130 -11 -248 -68 -350 -168 -104 -103 -187 -235 -239
-385 -64 -180 -61 -93 -61 -1810 0 -1355 2 -1573 15 -1643 65 -340 274 -621
526 -702 101 -34 252 -34 355 -2 144 44 284 163 385 326 95 155 143 304 161
507 11 115 10 129 -5 153 -14 21 -25 26 -61 26 -63 0 -72 -16 -79 -135 -13
-224 -76 -397 -199 -552 -157 -197 -397 -257 -588 -146 -114 66 -235 217 -295
366 -74 181 -69 63 -73 1727 -2 1016 0 1529 7 1600 23 223 97 392 234 537 55
58 88 82 155 115 80 40 89 42 176 43 112 0 182 -24 274 -93 176 -132 291 -375
310 -655 7 -103 9 -111 33 -130 34 -25 83 -16 106 20 15 23 16 38 5 152 -19
210 -76 378 -177 532 -130 194 -287 301 -470 318 -38 3 -104 3 -145 -1z"/>
<path d="M12621 12134 c-246 -66 -463 -346 -538 -694 -17 -80 -18 -171 -18
-1665 l0 -1580 24 -95 c86 -343 285 -591 536 -666 81 -24 239 -24 319 0 115
34 176 73 276 175 178 180 273 409 287 686 7 142 1 155 -72 155 -55 0 -67 -18
-71 -109 -6 -121 -15 -182 -40 -267 -63 -217 -199 -395 -364 -473 -70 -33 -81
-36 -170 -35 -115 0 -181 23 -273 92 -153 116 -269 331 -297 552 -8 59 -10
555 -8 1630 l3 1545 22 77 c85 298 264 500 481 540 248 46 510 -172 606 -504
25 -88 34 -144 40 -272 5 -93 17 -111 77 -111 57 0 69 20 69 114 0 415 -256
825 -565 906 -75 19 -251 19 -324 -1z"/>
<path d="M15911 12134 c-258 -69 -483 -372 -545 -734 -14 -84 -16 -292 -16
-2020 0 -1528 3 -1930 13 -1943 20 -28 78 -33 107 -9 l25 20 0 1191 0 1191
583 0 582 0 0 -2115 c0 -2080 0 -2114 19 -2125 31 -16 86 -12 104 8 16 17 17
230 17 2863 0 3063 2 2923 -50 3092 -90 291 -297 525 -515 582 -75 19 -251 19
-324 -1z m264 -139 c87 -23 152 -62 225 -135 117 -116 194 -259 232 -433 20
-86 21 -133 25 -770 l5 -677 -581 2 -581 3 0 670 c0 622 2 677 19 763 27 130
64 221 133 323 142 212 330 304 523 254z"/>
<path d="M4933 6693 c-65 -22 -135 -92 -168 -165 -70 -154 -16 -319 130 -396
45 -24 61 -27 160 -27 92 0 118 3 158 22 l47 22 0 119 c0 126 6 143 55 155 11
2 -34 5 -100 5 -86 0 -111 -2 -90 -9 48 -14 55 -32 55 -151 l0 -109 -35 -15
c-75 -31 -166 -14 -228 45 -50 45 -87 142 -87 225 0 104 63 222 137 252 41 18
124 18 166 0 38 -15 94 -76 103 -111 12 -49 19 -24 16 58 -2 45 -8 86 -13 92
-6 5 -9 2 -9 -8 0 -21 -20 -21 -84 -2 -62 19 -158 18 -213 -2z"/>
<path d="M5570 6518 c-147 -338 -166 -377 -194 -388 -14 -5 -26 -12 -26 -15 0
-3 42 -5 93 -5 l92 0 -35 18 c-42 21 -43 41 -6 125 l26 57 114 0 114 0 26 -65
c34 -86 34 -103 -6 -120 -31 -13 -25 -14 87 -15 l120 0 -30 18 c-16 11 -35 25
-42 33 -6 8 -60 133 -121 279 -60 145 -114 266 -119 267 -5 2 -47 -83 -93
-189z m118 -65 c23 -56 42 -104 42 -107 0 -3 -45 -6 -99 -6 l-99 0 51 115 c28
64 53 112 57 108 4 -4 25 -54 48 -110z"/>
<path d="M6117 6689 c-52 -27 -77 -72 -77 -136 0 -46 4 -58 34 -91 19 -21 75
-61 123 -90 113 -66 147 -100 147 -148 0 -28 -7 -43 -32 -65 -42 -37 -114 -40
-173 -7 -37 20 -46 35 -87 128 -9 20 -11 4 -11 -80 0 -95 1 -103 14 -85 15 19
17 19 79 2 89 -24 152 -22 201 6 55 31 85 79 85 137 0 71 -36 113 -154 180
-121 68 -154 96 -162 136 -5 25 0 38 23 63 39 43 87 50 148 21 48 -23 60 -38
87 -110 l16 -45 1 105 c0 76 -2 100 -10 88 -12 -22 -35 -23 -82 -3 -50 21
-124 18 -170 -6z"/>
<path d="M7829 6696 c-74 -26 -137 -86 -170 -161 -17 -38 -23 -69 -23 -131 0
-72 4 -89 33 -148 54 -110 147 -163 270 -154 110 8 197 71 244 177 30 66 29
188 -2 256 -61 138 -217 209 -352 161z m171 -35 c53 -28 88 -92 102 -189 20
-138 -10 -257 -80 -310 -30 -23 -45 -27 -101 -27 -52 0 -73 5 -98 23 -107 76
-123 366 -25 476 42 47 141 60 202 27z"/>
<path d="M9109 6696 c-74 -26 -137 -86 -170 -161 -17 -38 -23 -69 -23 -131 0
-72 4 -89 33 -148 54 -110 147 -163 270 -154 110 8 197 71 244 177 30 66 29
188 -2 256 -61 138 -217 209 -352 161z m171 -35 c53 -28 88 -92 102 -189 20
-138 -10 -257 -80 -310 -30 -23 -45 -27 -101 -27 -52 0 -73 5 -98 23 -107 76
-123 366 -25 476 42 47 141 60 202 27z"/>
<path d="M10830 6518 c-147 -338 -166 -377 -194 -388 -14 -5 -26 -12 -26 -15
0 -3 42 -5 93 -5 l92 0 -35 18 c-42 21 -43 41 -6 125 l26 57 114 0 114 0 26
-65 c34 -86 34 -103 -6 -120 -31 -13 -25 -14 87 -15 l120 0 -30 18 c-16 11
-35 25 -42 33 -6 8 -60 133 -121 279 -60 145 -114 266 -119 267 -5 2 -47 -83
-93 -189z m118 -65 c23 -56 42 -104 42 -107 0 -3 -45 -6 -99 -6 l-99 0 51 115
c28 64 53 112 57 108 4 -4 25 -54 48 -110z"/>
<path d="M11658 6689 c-21 -10 -44 -33 -53 -49 -19 -36 -19 -105 -1 -157 l14
-41 -56 -38 c-79 -54 -116 -110 -116 -174 0 -39 5 -55 25 -76 41 -44 76 -57
145 -52 53 3 72 10 116 41 52 36 53 36 73 18 92 -85 200 -80 246 10 25 50 18
61 -14 23 -33 -37 -80 -38 -136 -1 -23 16 -44 34 -47 41 -3 7 27 61 67 120 57
86 77 108 100 113 58 11 27 23 -61 23 -53 0 -90 -4 -90 -10 0 -5 5 -10 10 -10
6 0 15 -11 22 -25 14 -30 -8 -93 -51 -144 l-28 -34 -56 89 c-50 78 -55 90 -41
99 96 59 129 99 129 158 0 31 -7 45 -33 68 -26 24 -41 29 -80 29 -27 -1 -63
-9 -84 -21z m123 -28 c28 -22 30 -75 4 -115 -16 -24 -82 -73 -89 -65 -13 16
-37 115 -32 135 15 59 73 81 117 45z m-136 -270 c3 -10 31 -56 61 -102 l56
-83 -24 -18 c-33 -26 -92 -42 -123 -34 -61 15 -100 97 -74 157 12 31 75 99 90
99 4 0 10 -9 14 -19z"/>
<path d="M15439 6696 c-74 -26 -137 -86 -170 -161 -17 -38 -23 -69 -23 -131 0
-72 4 -89 33 -148 54 -110 147 -163 270 -154 110 8 197 71 244 177 30 66 29
188 -2 256 -61 138 -217 209 -352 161z m171 -35 c53 -28 88 -92 102 -189 20
-138 -10 -257 -80 -310 -30 -23 -45 -27 -101 -27 -52 0 -73 5 -98 23 -107 76
-123 366 -25 476 42 47 141 60 202 27z"/>
<path d="M15987 6689 c-52 -27 -77 -72 -77 -136 0 -46 4 -58 34 -91 19 -21 75
-61 123 -90 113 -66 147 -100 147 -148 0 -28 -7 -43 -32 -65 -42 -37 -114 -40
-173 -7 -37 20 -46 35 -87 128 -9 20 -11 4 -11 -80 0 -95 1 -103 14 -85 15 19
17 19 79 2 89 -24 152 -22 201 6 55 31 85 79 85 137 0 71 -36 113 -154 180
-121 68 -154 96 -162 136 -5 25 0 38 23 63 39 43 87 50 148 21 48 -23 60 -38
87 -110 l16 -45 1 105 c0 76 -2 100 -10 88 -12 -22 -35 -23 -82 -3 -50 21
-124 18 -170 -6z"/>
<path d="M6501 6628 l0 -73 19 42 c23 52 44 63 119 63 l61 0 0 -248 c0 -269
-1 -275 -55 -291 -21 -7 8 -9 100 -9 86 0 119 3 97 8 -19 4 -39 13 -45 19 -8
8 -13 91 -15 266 l-3 255 60 0 c33 0 71 -5 84 -11 25 -11 47 -47 47 -74 0 -8
5 -15 10 -15 11 0 13 81 4 118 l-6 22 -239 0 -239 0 1 -72z"/>
<path d="M7055 6690 c54 -17 55 -24 55 -285 0 -262 -1 -268 -55 -284 -21 -7 8
-9 100 -9 86 0 119 3 97 8 -54 13 -57 20 -57 148 l0 117 27 3 c23 3 37 -12
128 -137 l103 -141 81 1 c77 1 79 1 51 14 -16 8 -35 14 -41 15 -16 0 -54 45
-133 154 l-71 99 48 22 c64 30 92 69 92 130 0 59 -22 97 -74 126 -38 22 -53
24 -211 26 -119 2 -161 0 -140 -7z m290 -50 c49 -46 52 -142 6 -184 -26 -23
-87 -45 -128 -46 l-33 0 0 124 c0 141 -2 137 83 132 33 -2 55 -10 72 -26z"/>
<path d="M8230 6690 c0 -5 11 -10 24 -10 14 0 38 -12 55 -26 l31 -26 0 -238
c0 -258 1 -252 -57 -270 -19 -6 4 -8 77 -8 81 0 98 2 73 9 -18 5 -37 18 -43
29 -7 12 -9 95 -8 220 l3 201 195 -238 195 -238 5 276 c5 300 6 301 64 318 23
7 3 9 -79 9 -69 0 -98 -3 -79 -7 64 -16 66 -22 62 -259 l-3 -174 -180 221
-179 221 -78 0 c-45 0 -78 -4 -78 -10z"/>
<path d="M9557 6689 c62 -18 64 -30 61 -298 -2 -165 -7 -244 -15 -252 -6 -6
-26 -15 -45 -19 -23 -6 1 -8 77 -8 101 0 107 1 70 12 -32 9 -41 17 -46 41 -9
43 -10 425 -1 425 4 0 56 -108 116 -240 60 -132 112 -240 116 -240 4 0 56 108
116 241 l109 240 3 -217 c2 -152 -1 -221 -9 -230 -6 -8 -26 -18 -43 -23 -22
-7 5 -9 99 -9 116 0 126 1 90 11 -35 11 -40 17 -48 52 -4 22 -7 137 -5 256 3
235 5 242 62 258 25 7 14 9 -55 10 l-86 1 -104 -231 -103 -231 -19 39 c-10 21
-57 124 -105 228 l-88 190 -89 2 c-71 1 -83 0 -58 -8z"/>
<path d="M10363 6685 c21 -7 42 -16 45 -20 12 -12 14 -450 3 -493 -10 -35 -16
-41 -49 -50 -30 -8 -12 -10 93 -10 86 0 120 3 102 8 -58 18 -57 11 -57 285 0
274 -1 267 57 285 19 5 -15 8 -102 9 -122 0 -128 -1 -92 -14z"/>
<path d="M12370 6688 c19 -5 38 -15 42 -21 4 -7 8 -125 8 -263 0 -273 1 -266
-57 -284 -17 -5 58 -9 199 -9 l226 -1 25 75 c14 41 23 75 19 75 -4 0 -20 -21
-37 -45 -16 -25 -44 -52 -62 -60 -35 -17 -188 -21 -213 -5 -12 7 -16 36 -18
130 l-4 120 95 0 c78 0 97 -3 110 -18 10 -10 17 -26 17 -35 0 -9 5 -19 10 -22
6 -4 10 30 9 97 -1 103 -1 103 -16 65 -19 -46 -58 -60 -153 -55 l-65 3 0 115
0 115 100 3 c115 2 145 -8 160 -55 18 -55 25 -49 25 20 l0 67 -227 -1 c-170
-1 -219 -3 -193 -11z"/>
<path d="M12900 6680 c33 -17 43 -36 155 -295 112 -260 129 -294 141 -282 3 3
55 125 115 273 60 147 115 274 121 282 7 8 24 19 38 25 23 11 22 12 -22 15
-27 2 -69 2 -95 0 l-48 -3 30 -15 c24 -13 30 -22 29 -45 -1 -17 -36 -113 -77
-215 l-76 -185 -19 45 c-11 25 -47 109 -81 188 -76 174 -78 191 -31 214 l35
18 -125 0 -125 -1 35 -19z"/>
<path d="M13550 6688 c19 -5 38 -15 42 -21 4 -7 8 -125 8 -263 0 -273 1 -266
-57 -284 -17 -5 58 -9 199 -9 l226 -1 25 75 c14 41 23 75 19 75 -4 0 -20 -21
-37 -45 -16 -25 -44 -52 -62 -60 -35 -17 -188 -21 -213 -5 -12 7 -16 36 -18
130 l-4 120 95 0 c78 0 97 -3 110 -18 10 -10 17 -26 17 -35 0 -9 5 -19 10 -22
6 -4 10 30 9 97 -1 103 -1 103 -16 65 -19 -46 -58 -60 -153 -55 l-65 3 0 115
0 115 100 3 c115 2 145 -8 160 -55 18 -55 25 -49 25 20 l0 67 -227 -1 c-170
-1 -219 -3 -193 -11z"/>
<path d="M14030 6690 c0 -5 11 -10 24 -10 14 0 38 -12 55 -26 l31 -26 0 -238
c0 -258 1 -252 -57 -270 -19 -6 4 -8 77 -8 81 0 98 2 73 9 -18 5 -37 18 -43
29 -7 12 -9 95 -8 220 l3 201 195 -238 195 -238 5 276 c5 300 6 301 64 318 23
7 3 9 -79 9 -69 0 -98 -3 -79 -7 64 -16 66 -22 62 -259 l-3 -174 -180 221
-179 221 -78 0 c-45 0 -78 -4 -78 -10z"/>
<path d="M14711 6628 l0 -73 19 42 c23 52 44 63 119 63 l61 0 0 -248 c0 -269
-1 -275 -55 -291 -21 -7 8 -9 100 -9 86 0 119 3 97 8 -19 4 -39 13 -45 19 -8
8 -13 91 -15 266 l-3 255 60 0 c33 0 71 -5 84 -11 25 -11 47 -47 47 -74 0 -8
5 -15 10 -15 11 0 13 81 4 118 l-6 22 -239 0 -239 0 1 -72z"/>
</g>
</svg>
