<?xml version="1.0" standalone="no"?>
<!DOCTYPE svg PUBLIC "-//W3C//DTD SVG 20010904//EN"
 "http://www.w3.org/TR/2001/REC-SVG-20010904/DTD/svg10.dtd">
<svg version="1.0" xmlns="http://www.w3.org/2000/svg"
 width="1876.000000pt" height="1876.000000pt" viewBox="0 0 1876.000000 1876.000000"
 preserveAspectRatio="xMidYMid meet">

<g transform="translate(0.000000,1876.000000) scale(0.100000,-0.100000)"
fill="#000000" stroke="none">
<path d="M5770 18674 c-14 -3 -40 -7 -58 -10 -49 -8 -107 -65 -121 -119 -33
-132 15 -246 114 -274 28 -7 292 -11 848 -11 l807 0 0 -6413 c0 -4172 3 -6424
10 -6446 13 -46 65 -99 110 -111 45 -13 125 -13 170 0 45 12 97 65 110 111 7
22 10 2274 10 6446 l0 6413 275 0 275 0 0 -6407 c0 -4441 3 -6420 11 -6446 23
-85 91 -127 206 -127 82 0 141 31 171 90 l22 44 0 3348 0 3348 1640 0 1640 0
2 -5947 c3 -5025 5 -5952 17 -5973 42 -77 92 -104 191 -104 99 0 149 27 191
104 12 21 14 1431 17 9155 2 6740 0 9144 -8 9183 -13 60 -50 109 -97 128 -39
17 -160 18 -200 3 -15 -5 -40 -22 -56 -37 -61 -58 -57 155 -57 -3109 l0 -2983
-1640 0 -1640 0 0 2865 0 2864 378 3 c345 3 380 5 415 22 49 24 75 62 89 131
21 107 -21 207 -102 244 -32 15 -205 16 -1875 17 -1012 1 -1851 0 -1865 -2z"/>
<path d="M14810 18663 c-84 -10 -236 -46 -331 -79 -382 -133 -707 -403 -983
-819 -309 -465 -476 -981 -516 -1590 -14 -215 -14 -8189 0 -8400 49 -737 291
-1357 728 -1867 345 -401 794 -623 1262 -623 134 0 148 2 182 23 105 66 107
288 2 353 -28 17 -60 23 -157 30 -67 5 -158 16 -203 24 -258 48 -499 188 -724
421 -387 400 -612 927 -670 1564 -6 75 -10 857 -10 2263 l0 2147 803 0 c546 0
815 4 842 11 47 13 92 52 111 96 8 18 14 65 14 105 0 92 -26 142 -90 178 l-45
25 -818 3 -818 3 4 1872 c3 2055 -1 1913 63 2227 133 651 552 1263 1030 1503
154 77 295 113 496 126 128 8 165 19 205 63 32 34 43 71 43 147 0 91 -28 148
-90 179 -39 20 -58 22 -170 20 -69 0 -141 -3 -160 -5z"/>
</g>
</svg>
