<?xml version="1.0" standalone="no"?>
<!DOCTYPE svg PUBLIC "-//W3C//DTD SVG 20010904//EN"
 "http://www.w3.org/TR/2001/REC-SVG-20010904/DTD/svg10.dtd">
<svg version="1.0" xmlns="http://www.w3.org/2000/svg"
 width="1876.000000pt" height="1876.000000pt" viewBox="0 0 1876.000000 1876.000000"
 preserveAspectRatio="xMidYMid meet">

<g transform="translate(0.000000,1876.000000) scale(0.100000,-0.100000)"
fill="#000000" stroke="none">
<path d="M462 18637 c-42 -13 -88 -66 -102 -116 -7 -27 -9 -1675 -7 -5433 3
-5010 4 -5402 20 -5518 74 -543 230 -977 496 -1377 332 -498 713 -779 1201
-884 92 -20 134 -23 330 -23 196 0 238 3 330 23 488 105 869 386 1201 884 265
399 425 843 496 1377 17 128 18 416 21 5524 1 3749 -1 5400 -8 5427 -24 86
-92 129 -207 129 -82 0 -141 -31 -170 -90 l-23 -44 0 -5216 c-1 -2997 -5
-5306 -10 -5430 -13 -300 -49 -538 -116 -760 -144 -476 -430 -908 -769 -1163
-380 -285 -865 -333 -1280 -127 -412 204 -773 665 -956 1220 -85 259 -125 494
-139 825 -6 122 -10 2394 -10 5430 l0 5221 -22 44 c-32 62 -88 90 -178 89 -36
-1 -80 -6 -98 -12z"/>
<path d="M6820 18640 c-356 -49 -677 -206 -948 -465 -334 -318 -605 -778 -747
-1267 -46 -157 -89 -373 -112 -558 -17 -137 -18 -368 -18 -4385 0 -4030 1
-4247 18 -4385 67 -534 227 -982 496 -1387 332 -498 713 -779 1201 -884 92
-20 134 -23 330 -23 196 0 238 3 330 23 488 105 869 385 1202 886 327 490 508
1097 512 1710 1 203 -7 237 -69 275 -72 44 -204 44 -267 -1 -52 -38 -66 -85
-73 -259 -28 -684 -190 -1172 -543 -1630 -90 -116 -260 -282 -367 -358 -386
-274 -852 -315 -1260 -112 -421 209 -787 685 -969 1259 -74 234 -112 473 -126
786 -12 277 -12 7923 0 8200 14 331 54 566 139 825 149 450 420 847 746 1093
379 285 864 333 1280 127 327 -162 616 -478 825 -902 169 -343 251 -690 270
-1144 6 -144 13 -222 23 -245 41 -100 201 -138 312 -76 70 40 80 75 79 282 -3
375 -74 762 -206 1118 -64 170 -197 428 -307 594 -331 496 -716 781 -1196 883
-113 24 -439 36 -555 20z"/>
<path d="M11460 18640 c-356 -49 -677 -206 -948 -465 -334 -318 -605 -778
-747 -1267 -46 -157 -89 -373 -112 -558 -17 -137 -18 -368 -18 -4385 0 -4030
1 -4247 18 -4385 67 -534 227 -982 496 -1387 332 -498 713 -779 1201 -884 92
-20 134 -23 330 -23 196 0 238 3 330 23 488 105 869 385 1202 886 327 490 508
1097 512 1710 1 203 -7 237 -69 275 -72 44 -204 44 -267 -1 -52 -38 -66 -85
-73 -259 -28 -684 -190 -1172 -543 -1630 -90 -116 -260 -282 -367 -358 -386
-274 -852 -315 -1260 -112 -421 209 -787 685 -969 1259 -74 234 -112 473 -126
786 -12 277 -12 7923 0 8200 14 331 54 566 139 825 149 450 420 847 746 1093
379 285 864 333 1280 127 327 -162 616 -478 825 -902 169 -343 251 -690 270
-1144 6 -144 13 -222 23 -245 41 -100 201 -138 312 -76 70 40 80 75 79 282 -3
375 -74 762 -206 1118 -64 170 -197 428 -307 594 -331 496 -716 781 -1196 883
-113 24 -439 36 -555 20z"/>
<path d="M16100 18640 c-356 -49 -677 -206 -948 -465 -334 -318 -605 -778
-747 -1267 -44 -149 -88 -366 -112 -548 -17 -128 -18 -416 -21 -5524 -1 -3749
1 -5400 8 -5427 24 -86 92 -129 207 -129 82 0 141 31 171 90 l22 44 0 3343 0
3343 1640 0 1640 0 2 -5947 3 -5948 23 -33 c36 -50 89 -72 172 -72 118 0 180
42 200 135 8 35 10 2348 8 8025 -4 7446 -5 7983 -21 8100 -74 543 -230 977
-496 1377 -331 496 -716 781 -1196 883 -113 24 -439 36 -555 20z m355 -410
c415 -47 784 -310 1088 -775 196 -300 325 -662 382 -1065 29 -210 34 -531 35
-2212 l0 -1668 -1640 0 -1640 0 0 1673 c1 1681 6 1995 35 2207 56 403 186 765
382 1065 369 565 839 833 1358 775z"/>
</g>
</svg>
